<svg xmlns="http://www.w3.org/2000/svg" width="20" height="23" viewBox="0 0 28 31" fill="none">
  <path d="M26 16.6C26.6075 16.6 27.1 16.1075 27.1 15.5C27.1 14.8925 26.6075 14.4 26 14.4V16.6ZM1.15218 14.7222C0.722607 15.1518 0.722607 15.8482 1.15218 16.2778L8.15254 23.2782C8.58212 23.7078 9.2786 23.7078 9.70818 23.2782C10.1378 22.8486 10.1378 22.1521 9.70818 21.7225L3.48564 15.5L9.70818 9.27746C10.1378 8.84788 10.1378 8.1514 9.70818 7.72183C9.2786 7.29225 8.58212 7.29225 8.15254 7.72183L1.15218 14.7222ZM26 14.4L1.93 14.4V16.6L26 16.6V14.4Z" fill="#ffffff"/>
</svg>